<svg width="20" height="23" viewBox="0 0 20 23" fill="none" xmlns="http://www.w3.org/2000/svg">
<path d="M13.2686 10.7128C13.2686 11.4006 12.7543 11.9645 12.1029 11.9645C11.4629 11.9645 10.9371 11.4006 10.9371 10.7128C10.9371 10.0249 11.4514 9.46106 12.1029 9.46106C12.7543 9.46106 13.2686 10.0249 13.2686 10.7128ZM7.93143 9.46106C7.28 9.46106 6.76571 10.0249 6.76571 10.7128C6.76571 11.4006 7.29143 11.9645 7.93143 11.9645C8.58286 11.9645 9.09714 11.4006 9.09714 10.7128C9.10857 10.0249 8.58286 9.46106 7.93143 9.46106ZM20 2.32298V22.5532C17.1208 20.0427 18.0416 20.8737 14.6971 17.8057L15.3029 19.8919H2.34286C1.05143 19.8919 0 18.8545 0 17.5689V2.32298C0 1.03745 1.05143 0 2.34286 0H17.6571C18.9486 0 20 1.03745 20 2.32298ZM16.7429 13.0132C16.7429 9.38213 15.0971 6.43894 15.0971 6.43894C13.4514 5.22106 11.8857 5.25489 11.8857 5.25489L11.7257 5.43532C13.6686 6.0217 14.5714 6.86745 14.5714 6.86745C11.8567 5.39933 8.66768 5.39907 6.03429 6.54043C5.61143 6.73213 5.36 6.86745 5.36 6.86745C5.36 6.86745 6.30857 5.9766 8.36571 5.39021L8.25143 5.25489C8.25143 5.25489 6.68571 5.22106 5.04 6.43894C5.04 6.43894 3.39429 9.38213 3.39429 13.0132C3.39429 13.0132 4.35429 14.6483 6.88 14.7272C6.88 14.7272 7.30286 14.2198 7.64571 13.7913C6.19429 13.3628 5.64571 12.4606 5.64571 12.4606C5.81384 12.5768 6.09107 12.7273 6.11429 12.7426C8.0433 13.8085 10.7834 14.1577 13.2457 13.1372C13.6457 12.9906 14.0914 12.7764 14.56 12.4719C14.56 12.4719 13.9886 13.3966 12.4914 13.8138C12.8343 14.2423 13.2457 14.7272 13.2457 14.7272C15.7714 14.6483 16.7429 13.0132 16.7429 13.0132Z" fill="#461DE1"/>
</svg>
