<svg width="80" height="133" viewBox="0 0 80 133" fill="none" xmlns="http://www.w3.org/2000/svg">
<path fill-rule="evenodd" clip-rule="evenodd" d="M57.8184 90.594C61.1173 89.8747 64.3709 91.9859 65.0972 95.3169C65.8234 98.648 63.744 101.922 60.4451 102.641C57.1462 103.36 53.8926 101.249 53.1663 97.9182C52.4401 94.5872 54.5196 91.3132 57.8184 90.594ZM53.1109 126.325C67.935 123.093 77.3089 108.335 74.0453 93.366C70.7817 78.3973 56.115 68.8805 41.291 72.1126C40.2709 72.335 39.3405 72.7398 38.3752 73.0701L38.3083 72.7629L26.4883 18.5504C25.0384 11.9003 18.5167 7.66855 11.9308 9.10445C5.34502 10.5404 1.17675 17.1029 2.62666 23.753L20.3566 105.072C23.6202 120.04 38.2869 129.557 53.1109 126.325Z" fill="white"/>
</svg>
