<svg width="135" height="108" viewBox="0 0 135 108" fill="none" xmlns="http://www.w3.org/2000/svg">
<path fill-rule="evenodd" clip-rule="evenodd" d="M97.4444 51.1318C99.076 54.0879 102.808 55.1456 105.793 53.4981C108.777 51.8506 109.871 48.1294 108.24 45.1733C106.608 42.2172 102.876 41.1595 99.8916 42.807C96.9067 44.4546 95.8127 48.1757 97.4444 51.1318ZM121.231 24.0549C128.563 37.3385 123.631 54.1129 110.218 61.5164C96.805 68.9198 79.9835 64.1518 72.6516 50.8681C72.147 49.954 71.8388 48.9874 71.4516 48.0434L71.1763 48.1954L22.5972 75.0086C16.6382 78.2977 9.15825 76.1775 5.90093 70.2761C2.64362 64.3746 4.83632 56.9156 10.7954 53.6265L83.664 13.4066C97.0772 6.00319 113.899 10.7712 121.231 24.0549Z" fill="white"/>
</svg>
