<svg width="20" height="21" viewBox="0 0 20 21" fill="none" xmlns="http://www.w3.org/2000/svg">
<path d="M10.0044 5.29454C7.1651 5.29454 4.87493 7.58472 4.87493 10.424C4.87493 13.2633 7.1651 15.5535 10.0044 15.5535C12.8437 15.5535 15.1338 13.2633 15.1338 10.424C15.1338 7.58472 12.8437 5.29454 10.0044 5.29454ZM10.0044 13.7588C8.16957 13.7588 6.66957 12.2633 6.66957 10.424C6.66957 8.58472 8.1651 7.08918 10.0044 7.08918C11.8437 7.08918 13.3392 8.58472 13.3392 10.424C13.3392 12.2633 11.8392 13.7588 10.0044 13.7588ZM16.5401 5.08472C16.5401 5.7499 16.0044 6.28115 15.3437 6.28115C14.6785 6.28115 14.1472 5.74543 14.1472 5.08472C14.1472 4.424 14.683 3.88829 15.3437 3.88829C16.0044 3.88829 16.5401 4.424 16.5401 5.08472ZM19.9374 6.299C19.8615 4.69632 19.4955 3.27668 18.3213 2.10704C17.1517 0.937395 15.7321 0.571324 14.1294 0.490967C12.4776 0.397217 7.52671 0.397217 5.87493 0.490967C4.27671 0.56686 2.85707 0.932931 1.68296 2.10257C0.508859 3.27222 0.147252 4.69186 0.0668945 6.29454C-0.0268555 7.94632 -0.0268555 12.8972 0.0668945 14.549C0.142787 16.1517 0.508859 17.5713 1.68296 18.741C2.85707 19.9106 4.27225 20.2767 5.87493 20.357C7.52671 20.4508 12.4776 20.4508 14.1294 20.357C15.7321 20.2811 17.1517 19.9151 18.3213 18.741C19.491 17.5713 19.8571 16.1517 19.9374 14.549C20.0312 12.8972 20.0312 7.95079 19.9374 6.299ZM17.8035 16.3213C17.4553 17.1963 16.7812 17.8704 15.9017 18.2231C14.5847 18.7454 11.4597 18.6249 10.0044 18.6249C8.54903 18.6249 5.41957 18.741 4.10707 18.2231C3.23207 17.8749 2.55796 17.2008 2.20529 16.3213C1.68296 15.0044 1.8035 11.8794 1.8035 10.424C1.8035 8.96865 1.68743 5.83918 2.20529 4.52668C2.5535 3.65168 3.22761 2.97757 4.10707 2.6249C5.42403 2.10257 8.54903 2.22311 10.0044 2.22311C11.4597 2.22311 14.5892 2.10704 15.9017 2.6249C16.7767 2.97311 17.4508 3.64722 17.8035 4.52668C18.3258 5.84365 18.2053 8.96865 18.2053 10.424C18.2053 11.8794 18.3258 15.0088 17.8035 16.3213Z" fill="#461DE1"/>
</svg>
