<svg width="20" height="18" viewBox="0 0 20 18" fill="none" xmlns="http://www.w3.org/2000/svg">
<path d="M17.9441 4.92644C17.9568 5.10409 17.9568 5.28179 17.9568 5.45945C17.9568 10.8782 13.8325 17.1219 6.29441 17.1219C3.97207 17.1219 1.81473 16.4493 0 15.2818C0.329961 15.3198 0.647187 15.3325 0.989844 15.3325C2.90605 15.3325 4.67004 14.6853 6.07867 13.5813C4.27664 13.5432 2.76648 12.363 2.24617 10.7386C2.5 10.7767 2.75379 10.8021 3.02031 10.8021C3.38832 10.8021 3.75637 10.7513 4.09898 10.6625C2.22082 10.2817 0.812148 8.63202 0.812148 6.63964V6.5889C1.35781 6.89347 1.99238 7.08382 2.66492 7.10917C1.56086 6.37312 0.837539 5.11679 0.837539 3.69546C0.837539 2.93406 1.04055 2.23609 1.3959 1.62695C3.41367 4.11425 6.44668 5.73859 9.84766 5.91628C9.78422 5.61171 9.74613 5.29449 9.74613 4.97722C9.74613 2.71831 11.5736 0.878235 13.8451 0.878235C15.0253 0.878235 16.0913 1.37316 16.84 2.17265C17.7664 1.99499 18.6547 1.65234 19.4416 1.18281C19.137 2.1346 18.4898 2.93409 17.6395 3.44167C18.4644 3.35288 19.2639 3.12441 19.9999 2.80718C19.4416 3.61933 18.7436 4.34265 17.9441 4.92644Z" fill="#461DE1"/>
</svg>
